# xmcd CD database file
#
# Track frame offsets:
#	150
#	14397
#	27017
#	39532
#	49972
#	63507
#	75547
#	90080
#	102760
#	121225
#	131167
#	143930
#	157377
#	172967
#	187177
#	198530
#
# Disc length: 2776 seconds
#
# Revision: 0
# Processed by: cddbd v1.4PL0 Copyright (c) Steve Scherf et al.
# Submitted via: CDex 1.50beta9
#
DISCID=da0ad610
DTITLE=PADDY O'BRIEN - SUNNYSIDE
DYEAR=1900
DGENRE=Country
TTITLE0=Keep On The Sunnyside
TTITLE1=Knock At My Window Tonight Love
TTITLE2=Loreena
TTITLE3=She's Mine
TTITLE4=Close To You
TTITLE5=There Goes My Everthing
TTITLE6=Little Town On The Shannon
TTITLE7=Truck Driving Man
TTITLE8=My Wedding Band- Is A Halo Of Gold
TTITLE9=Everybod's Reaching Out For Someone
TTITLE10=My Loverly Leitrim Shore
TTITLE11=Sweethearts In Heaven
TTITLE12=Devil Woman
TTITLE13=A New Attraction
TTITLE14=Will You Think Of Me
TTITLE15=She Taught Me How To Yodel
EXTD=
EXTT0=
EXTT1=
EXTT2=
EXTT3=
EXTT4=
EXTT5=
EXTT6=
EXTT7=
EXTT8=
EXTT9=
EXTT10=
EXTT11=
EXTT12=
EXTT13=
EXTT14=
EXTT15=
PLAYORDER=
